<?xml version="1.0" encoding="UTF-8"?>
<!DOCTYPE svg PUBLIC "-//W3C//DTD SVG 1.1//EN" "http://www.w3.org/Graphics/SVG/1.1/DTD/svg11.dtd">

<svg xmlns="http://www.w3.org/2000/svg" xmlns:xlink="http://www.w3.org/1999/xlink" width="213.3px" height="304px" viewbox="0 0 213.3 304" version="1.1">
  <title>TPS61089_BOOST_RNR_A_mid2: null</title>
  <desc>TPS61089_BOOST_RNR_A WebTHERM&amp;reg; Board Layout file</desc>
  <g id="board" fill-opacity="1" transform="scale(0.1016,-0.1016) translate(0,-3000.0)">
    <rect x="0" y="0" width="2100" height="3000" stroke="#006600" stroke-width="0" fill="#006600" type="Fill" layer="PCB" />
    <polygon net="0" points="2050,50 50,50 50,2950 2050,2950" stroke-width="0.0" stroke="#ff9900" fill="#ff9900" stroke-linecap="round" stroke-linejoin="round" opacity="1.0" layer="MID2" />
    <polygon net="0" points="1250,2924 1234,2922 1219,2918 1205,2910 1193,2901 1184,2889 1176,2875 1172,2860 1170,2845 1172,2829 1176,2814 1184,2800 1193,2788 1205,2779 1219,2771 1234,2767 1250,2765 1265,2767 1280,2771 1294,2779 1306,2788 1315,2800 1323,2814 1327,2829 1329,2845 1327,2860 1323,2875 1315,2889 1306,2901 1294,2910 1280,2918 1265,2922" stroke-width="0.0" stroke="#006600" fill="#006600" stroke-linecap="round" stroke-linejoin="round" opacity="1.0" layer="MID2" />
    <polygon net="0" points="1750,2270 1742,2269 1734,2266 1728,2261 1723,2255 1720,2247 1719,2240 1720,2232 1723,2224 1728,2218 1734,2213 1742,2210 1750,2209 1757,2210 1765,2213 1771,2218 1776,2224 1779,2232 1780,2240 1779,2247 1776,2255 1771,2261 1765,2266 1757,2269" stroke-width="0.0" stroke="#006600" fill="#006600" stroke-linecap="round" stroke-linejoin="round" opacity="1.0" layer="MID2" />
    <polygon net="0" points="1540,1909 1532,1907 1526,1903 1525,1901 1520,1901 1518,1903 1512,1907 1505,1909 1497,1907 1491,1903 1490,1901 1485,1901 1483,1903 1477,1907 1470,1909 1462,1907 1456,1903 1455,1901 1450,1901 1448,1903 1442,1907 1435,1909 1427,1907 1421,1903 1420,1901 1415,1901 1413,1903 1407,1907 1400,1909 1392,1907 1386,1903 1385,1901 1380,1901 1378,1903 1372,1907 1365,1909 1357,1907 1351,1903 1350,1901 1345,1901 1343,1903 1337,1907 1330,1909 1322,1907 1316,1903 1315,1901 1310,1901 1308,1903 1302,1907 1295,1909 1287,1907 1281,1903 1280,1901 1275,1901 1273,1903 1267,1907 1260,1909 1252,1907 1246,1903 1245,1901 1240,1901 1238,1903 1232,1907 1225,1909 1217,1907 1211,1903 1210,1901 1205,1901 1203,1903 1197,1907 1190,1909 1182,1907 1176,1903 1175,1901 1170,1901 1168,1903 1162,1907 1155,1909 1147,1907 1141,1903 1140,1901 1135,1901 1133,1903 1127,1907 1120,1909 1112,1907 1106,1903 1105,1901 1100,1901 1098,1903 1092,1907 1085,1909 1077,1907 1071,1903 1067,1897 1065,1890 1067,1882 1071,1876 1077,1872 1085,1870 1092,1872 1098,1876 1100,1878 1105,1878 1106,1876 1112,1872 1120,1870 1127,1872 1133,1876 1135,1878 1140,1878 1141,1876 1147,1872 1155,1870 1162,1872 1168,1876 1170,1878 1175,1878 1176,1876 1182,1872 1190,1870 1197,1872 1203,1876 1205,1878 1210,1878 1211,1876 1217,1872 1225,1870 1232,1872 1238,1876 1240,1878 1245,1878 1246,1876 1252,1872 1260,1870 1267,1872 1273,1876 1275,1878 1280,1878 1281,1876 1287,1872 1295,1870 1302,1872 1308,1876 1310,1878 1314,1878 1316,1873 1313,1870 1310,1862 1309,1855 1310,1847 1313,1839 1318,1833 1324,1828 1332,1825 1340,1824 1347,1825 1355,1828 1361,1833 1362,1835 1367,1835 1368,1833 1374,1828 1382,1825 1390,1824 1397,1825 1405,1828 1411,1833 1415,1838 1420,1838 1423,1833 1429,1828 1437,1825 1445,1824 1452,1825 1460,1828 1466,1833 1470,1838 1475,1838 1478,1833 1484,1828 1492,1825 1500,1824 1507,1825 1515,1828 1521,1833 1526,1839 1529,1847 1530,1855 1529,1862 1526,1870 1525,1870 1529,1874 1532,1872 1540,1870 1547,1872 1553,1876 1557,1882 1559,1890 1557,1897 1553,1903 1547,1907" stroke-width="0.0" stroke="#006600" fill="#006600" stroke-linecap="round" stroke-linejoin="round" opacity="1.0" layer="MID2" />
    <polygon net="0" points="1172,1819 1164,1817 1158,1813 1153,1813 1147,1817 1140,1819 1132,1817 1126,1813 1121,1813 1115,1817 1108,1819 1100,1817 1094,1813 1090,1807 1088,1800 1090,1792 1094,1786 1094,1783 1090,1777 1088,1770 1090,1762 1094,1756 1100,1752 1108,1750 1115,1752 1121,1756 1123,1758 1128,1758 1129,1756 1135,1752 1143,1750 1150,1752 1156,1756 1158,1756 1164,1752 1172,1750 1179,1752 1185,1756 1189,1762 1191,1770 1189,1777 1185,1783 1185,1786 1189,1792 1191,1800 1189,1807 1185,1813 1179,1817" stroke-width="0.0" stroke="#006600" fill="#006600" stroke-linecap="round" stroke-linejoin="round" opacity="1.0" layer="MID2" />
    <polygon net="0" points="1172,1744 1164,1742 1158,1738 1156,1738 1150,1742 1143,1744 1135,1742 1129,1738 1128,1736 1123,1736 1121,1738 1115,1742 1108,1744 1100,1742 1094,1738 1090,1732 1088,1725 1090,1717 1094,1711 1099,1707 1099,1702 1094,1698 1090,1692 1088,1685 1090,1677 1094,1671 1100,1667 1108,1665 1115,1667 1121,1671 1123,1673 1128,1673 1129,1671 1135,1667 1143,1665 1150,1667 1156,1671 1158,1671 1164,1667 1172,1665 1179,1667 1185,1671 1189,1677 1191,1685 1189,1692 1185,1698 1180,1702 1180,1707 1185,1711 1189,1717 1191,1725 1189,1732 1185,1738 1179,1742" stroke-width="0.0" stroke="#006600" fill="#006600" stroke-linecap="round" stroke-linejoin="round" opacity="1.0" layer="MID2" />
    <polygon net="0" points="980,1770 972,1768 965,1764 961,1757 959,1750 961,1742 965,1735 972,1731 980,1729 987,1731 994,1735 998,1742 1000,1750 998,1757 994,1764 987,1768" stroke-width="0.0" stroke="#006600" fill="#006600" stroke-linecap="round" stroke-linejoin="round" opacity="1.0" layer="MID2" />
    <polygon net="0" points="1300,1770 1292,1769 1284,1766 1278,1761 1273,1755 1270,1747 1269,1740 1270,1732 1273,1724 1278,1718 1284,1713 1292,1710 1300,1709 1307,1710 1315,1713 1321,1718 1326,1724 1329,1732 1330,1740 1329,1747 1326,1755 1321,1761 1315,1766 1307,1769" stroke-width="0.0" stroke="#006600" fill="#006600" stroke-linecap="round" stroke-linejoin="round" opacity="1.0" layer="MID2" />
    <polygon net="0" points="1156,1657 1148,1655 1142,1651 1136,1655 1129,1657 1121,1655 1115,1651 1111,1645 1109,1638 1111,1630 1115,1624 1121,1620 1129,1618 1136,1620 1142,1624 1147,1620 1147,1615 1142,1611 1138,1605 1136,1598 1138,1590 1142,1584 1148,1580 1156,1578 1163,1580 1169,1584 1173,1590 1175,1598 1173,1605 1169,1611 1164,1615 1164,1620 1169,1624 1173,1630 1175,1638 1173,1645 1169,1651 1163,1655" stroke-width="0.0" stroke="#006600" fill="#006600" stroke-linecap="round" stroke-linejoin="round" opacity="1.0" layer="MID2" />
    <polygon net="0" points="835,1610 827,1608 820,1604 816,1597 814,1590 816,1582 820,1575 827,1571 835,1569 842,1571 849,1575 853,1582 855,1590 853,1597 849,1604 842,1608" stroke-width="0.0" stroke="#006600" fill="#006600" stroke-linecap="round" stroke-linejoin="round" opacity="1.0" layer="MID2" />
    <polygon net="0" points="1212,1606 1205,1605 1198,1601 1194,1595 1193,1587 1194,1580 1198,1573 1205,1569 1212,1568 1220,1569 1226,1573 1230,1580 1231,1587 1230,1595 1226,1601 1220,1605" stroke-width="0.0" stroke="#006600" fill="#006600" stroke-linecap="round" stroke-linejoin="round" opacity="1.0" layer="MID2" />
    <polygon net="0" points="1190,1569 1182,1567 1176,1563 1174,1563 1168,1567 1160,1569 1153,1567 1147,1563 1142,1557 1141,1550 1142,1542 1147,1536 1153,1532 1160,1530 1168,1532 1174,1536 1176,1536 1182,1532 1190,1530 1197,1532 1203,1536 1207,1542 1209,1550 1207,1557 1203,1563 1197,1567" stroke-width="0.0" stroke="#006600" fill="#006600" stroke-linecap="round" stroke-linejoin="round" opacity="1.0" layer="MID2" />
    <polygon net="0" points="1325,1445 1317,1444 1309,1441 1303,1436 1298,1430 1295,1422 1294,1415 1295,1407 1298,1399 1303,1393 1303,1391 1298,1385 1295,1377 1294,1370 1295,1362 1298,1354 1303,1348 1303,1346 1298,1340 1295,1332 1294,1325 1295,1317 1298,1309 1303,1303 1303,1301 1298,1295 1295,1287 1294,1280 1295,1272 1298,1264 1303,1258 1303,1256 1298,1250 1295,1242 1294,1235 1295,1227 1298,1219 1303,1213 1303,1211 1298,1205 1295,1197 1294,1190 1295,1182 1298,1174 1303,1168 1303,1166 1298,1160 1295,1152 1294,1145 1295,1137 1298,1129 1303,1123 1303,1121 1298,1115 1295,1107 1294,1100 1295,1092 1298,1084 1303,1078 1307,1075 1303,1070 1300,1062 1299,1055 1300,1047 1303,1039 1308,1033 1308,1031 1303,1025 1300,1017 1299,1010 1300,1002 1303,994 1308,988 1314,983 1322,980 1330,979 1337,980 1345,983 1351,988 1356,994 1359,1002 1360,1010 1359,1017 1356,1025 1351,1031 1351,1033 1356,1039 1359,1047 1360,1055 1359,1062 1356,1070 1351,1076 1347,1079 1351,1084 1354,1092 1355,1100 1354,1107 1351,1115 1346,1121 1346,1123 1351,1129 1354,1137 1355,1145 1354,1152 1351,1160 1346,1166 1346,1168 1351,1174 1354,1182 1355,1190 1354,1197 1351,1205 1346,1211 1346,1213 1351,1219 1354,1227 1355,1235 1354,1242 1351,1250 1346,1256 1346,1258 1351,1264 1354,1272 1355,1280 1354,1287 1351,1295 1346,1301 1346,1303 1351,1309 1354,1317 1355,1325 1354,1332 1351,1340 1346,1346 1346,1348 1351,1354 1354,1362 1355,1370 1354,1377 1351,1385 1346,1391 1346,1393 1351,1399 1354,1407 1355,1415 1354,1422 1351,1430 1346,1436 1340,1441 1332,1444" stroke-width="0.0" stroke="#006600" fill="#006600" stroke-linecap="round" stroke-linejoin="round" opacity="1.0" layer="MID2" />
    <polygon net="0" points="1280,274 1264,272 1249,268 1235,260 1223,251 1214,239 1206,225 1202,210 1200,195 1202,179 1206,164 1214,150 1223,138 1235,129 1249,121 1264,117 1280,115 1295,117 1310,121 1324,129 1336,138 1345,150 1353,164 1357,179 1359,195 1357,210 1353,225 1345,239 1336,251 1324,260 1310,268 1295,272" stroke-width="0.0" stroke="#006600" fill="#006600" stroke-linecap="round" stroke-linejoin="round" opacity="1.0" layer="MID2" />
    <circle net="2" cx="1140" cy="1800" r="6.4" r1="9" r2="3" stroke-width="5" stroke="#ff9900" fill="#ffffff" opacity="1" layer="MULTILAYER" />
    <circle net="2" cx="1172" cy="1800" r="6.4" r1="9" r2="3" stroke-width="5" stroke="#ff9900" fill="#ffffff" opacity="1" layer="MULTILAYER" />
    <circle net="16" cx="980" cy="1750" r="7" r1="10" r2="5" stroke-width="5" stroke="#ff9900" fill="#ffffff" opacity="1" layer="MULTILAYER" />
    <circle net="10" cx="1325" cy="1370" r="15" r1="20" r2="10" stroke-width="10" stroke="#ff9900" fill="#ffffff" opacity="1" layer="MULTILAYER" />
    <circle net="2" cx="1108" cy="1725" r="6.4" r1="9" r2="3" stroke-width="5" stroke="#ff9900" fill="#ffffff" opacity="1" layer="MULTILAYER" />
    <circle net="2" cx="1143" cy="1725" r="6.4" r1="9" r2="3" stroke-width="5" stroke="#ff9900" fill="#ffffff" opacity="1" layer="MULTILAYER" />
    <circle net="2" cx="1172" cy="1725" r="6.4" r1="9" r2="3" stroke-width="5" stroke="#ff9900" fill="#ffffff" opacity="1" layer="MULTILAYER" />
    <circle net="0" cx="960" cy="1225" r="15" r1="20" r2="10" stroke-width="10" stroke="#ff9900" fill="#ffffff" opacity="1" layer="MULTILAYER" />
    <circle net="10" cx="1325" cy="1415" r="15" r1="20" r2="10" stroke-width="10" stroke="#ff9900" fill="#ffffff" opacity="1" layer="MULTILAYER" />
    <circle net="10" cx="1160" cy="1550" r="6.4" r1="9" r2="3" stroke-width="5" stroke="#ff9900" fill="#ffffff" opacity="1" layer="MULTILAYER" />
    <circle net="0" cx="670" cy="1905" r="15" r1="20" r2="10" stroke-width="10" stroke="#ff9900" fill="#ffffff" opacity="1" layer="MULTILAYER" />
    <circle net="0" cx="730" cy="1905" r="15" r1="20" r2="10" stroke-width="10" stroke="#ff9900" fill="#ffffff" opacity="1" layer="MULTILAYER" />
    <circle net="0" cx="670" cy="1955" r="15" r1="20" r2="10" stroke-width="10" stroke="#ff9900" fill="#ffffff" opacity="1" layer="MULTILAYER" />
    <circle net="0" cx="730" cy="1955" r="15" r1="20" r2="10" stroke-width="10" stroke="#ff9900" fill="#ffffff" opacity="1" layer="MULTILAYER" />
    <circle net="0" cx="670" cy="2010" r="15" r1="20" r2="10" stroke-width="10" stroke="#ff9900" fill="#ffffff" opacity="1" layer="MULTILAYER" />
    <circle net="0" cx="730" cy="2010" r="15" r1="20" r2="10" stroke-width="10" stroke="#ff9900" fill="#ffffff" opacity="1" layer="MULTILAYER" />
    <circle net="0" cx="670" cy="2065" r="15" r1="20" r2="10" stroke-width="10" stroke="#ff9900" fill="#ffffff" opacity="1" layer="MULTILAYER" />
    <circle net="0" cx="730" cy="2065" r="15" r1="20" r2="10" stroke-width="10" stroke="#ff9900" fill="#ffffff" opacity="1" layer="MULTILAYER" />
    <circle net="0" cx="730" cy="2285" r="15" r1="20" r2="10" stroke-width="10" stroke="#ff9900" fill="#ffffff" opacity="1" layer="MULTILAYER" />
    <circle net="0" cx="670" cy="2285" r="15" r1="20" r2="10" stroke-width="10" stroke="#ff9900" fill="#ffffff" opacity="1" layer="MULTILAYER" />
    <circle net="0" cx="730" cy="2230" r="15" r1="20" r2="10" stroke-width="10" stroke="#ff9900" fill="#ffffff" opacity="1" layer="MULTILAYER" />
    <circle net="0" cx="670" cy="2230" r="15" r1="20" r2="10" stroke-width="10" stroke="#ff9900" fill="#ffffff" opacity="1" layer="MULTILAYER" />
    <circle net="0" cx="730" cy="2175" r="15" r1="20" r2="10" stroke-width="10" stroke="#ff9900" fill="#ffffff" opacity="1" layer="MULTILAYER" />
    <circle net="0" cx="670" cy="2175" r="15" r1="20" r2="10" stroke-width="10" stroke="#ff9900" fill="#ffffff" opacity="1" layer="MULTILAYER" />
    <circle net="0" cx="730" cy="2120" r="15" r1="20" r2="10" stroke-width="10" stroke="#ff9900" fill="#ffffff" opacity="1" layer="MULTILAYER" />
    <circle net="0" cx="670" cy="2120" r="15" r1="20" r2="10" stroke-width="10" stroke="#ff9900" fill="#ffffff" opacity="1" layer="MULTILAYER" />
    <circle net="10" cx="1330" cy="1010" r="15" r1="20" r2="10" stroke-width="10" stroke="#ff9900" fill="#ffffff" opacity="1" layer="MULTILAYER" />
    <circle net="10" cx="1330" cy="1055" r="15" r1="20" r2="10" stroke-width="10" stroke="#ff9900" fill="#ffffff" opacity="1" layer="MULTILAYER" />
    <circle net="10" cx="1325" cy="1325" r="15" r1="20" r2="10" stroke-width="10" stroke="#ff9900" fill="#ffffff" opacity="1" layer="MULTILAYER" />
    <circle net="10" cx="1325" cy="1280" r="15" r1="20" r2="10" stroke-width="10" stroke="#ff9900" fill="#ffffff" opacity="1" layer="MULTILAYER" />
    <circle net="10" cx="1325" cy="1235" r="15" r1="20" r2="10" stroke-width="10" stroke="#ff9900" fill="#ffffff" opacity="1" layer="MULTILAYER" />
    <circle net="10" cx="1325" cy="1190" r="15" r1="20" r2="10" stroke-width="10" stroke="#ff9900" fill="#ffffff" opacity="1" layer="MULTILAYER" />
    <circle net="10" cx="1325" cy="1145" r="15" r1="20" r2="10" stroke-width="10" stroke="#ff9900" fill="#ffffff" opacity="1" layer="MULTILAYER" />
    <circle net="10" cx="1325" cy="1100" r="15" r1="20" r2="10" stroke-width="10" stroke="#ff9900" fill="#ffffff" opacity="1" layer="MULTILAYER" />
    <circle net="10" cx="1156" cy="1598" r="6.4" r1="9" r2="3" stroke-width="5" stroke="#ff9900" fill="#ffffff" opacity="1" layer="MULTILAYER" />
    <circle net="0" cx="900" cy="1055" r="15" r1="20" r2="10" stroke-width="10" stroke="#ff9900" fill="#ffffff" opacity="1" layer="MULTILAYER" />
    <circle net="0" cx="960" cy="950" r="15" r1="20" r2="10" stroke-width="10" stroke="#ff9900" fill="#ffffff" opacity="1" layer="MULTILAYER" />
    <circle net="0" cx="900" cy="1110" r="15" r1="20" r2="10" stroke-width="10" stroke="#ff9900" fill="#ffffff" opacity="1" layer="MULTILAYER" />
    <circle net="0" cx="960" cy="1005" r="15" r1="20" r2="10" stroke-width="10" stroke="#ff9900" fill="#ffffff" opacity="1" layer="MULTILAYER" />
    <circle net="0" cx="900" cy="1165" r="15" r1="20" r2="10" stroke-width="10" stroke="#ff9900" fill="#ffffff" opacity="1" layer="MULTILAYER" />
    <circle net="0" cx="960" cy="1060" r="15" r1="20" r2="10" stroke-width="10" stroke="#ff9900" fill="#ffffff" opacity="1" layer="MULTILAYER" />
    <circle net="0" cx="900" cy="1220" r="15" r1="20" r2="10" stroke-width="10" stroke="#ff9900" fill="#ffffff" opacity="1" layer="MULTILAYER" />
    <circle net="0" cx="960" cy="1115" r="15" r1="20" r2="10" stroke-width="10" stroke="#ff9900" fill="#ffffff" opacity="1" layer="MULTILAYER" />
    <circle net="0" cx="960" cy="1170" r="15" r1="20" r2="10" stroke-width="10" stroke="#ff9900" fill="#ffffff" opacity="1" layer="MULTILAYER" />
    <circle net="0" cx="960" cy="895" r="15" r1="20" r2="10" stroke-width="10" stroke="#ff9900" fill="#ffffff" opacity="1" layer="MULTILAYER" />
    <circle net="0" cx="900" cy="1000" r="15" r1="20" r2="10" stroke-width="10" stroke="#ff9900" fill="#ffffff" opacity="1" layer="MULTILAYER" />
    <circle net="0" cx="960" cy="840" r="15" r1="20" r2="10" stroke-width="10" stroke="#ff9900" fill="#ffffff" opacity="1" layer="MULTILAYER" />
    <circle net="0" cx="900" cy="945" r="15" r1="20" r2="10" stroke-width="10" stroke="#ff9900" fill="#ffffff" opacity="1" layer="MULTILAYER" />
    <circle net="0" cx="960" cy="785" r="15" r1="20" r2="10" stroke-width="10" stroke="#ff9900" fill="#ffffff" opacity="1" layer="MULTILAYER" />
    <circle net="0" cx="900" cy="890" r="15" r1="20" r2="10" stroke-width="10" stroke="#ff9900" fill="#ffffff" opacity="1" layer="MULTILAYER" />
    <circle net="0" cx="900" cy="840" r="15" r1="20" r2="10" stroke-width="10" stroke="#ff9900" fill="#ffffff" opacity="1" layer="MULTILAYER" />
    <circle net="2" cx="1156" cy="1638" r="6.4" r1="9" r2="3" stroke-width="5" stroke="#ff9900" fill="#ffffff" opacity="1" layer="MULTILAYER" />
    <circle net="0" cx="1128" cy="1598" r="6.4" r1="9" r2="3" stroke-width="5" stroke="#ff9900" fill="#ffffff" opacity="1" layer="MULTILAYER" />
    <circle net="2" cx="1172" cy="1685" r="6.4" r1="9" r2="3" stroke-width="5" stroke="#ff9900" fill="#ffffff" opacity="1" layer="MULTILAYER" />
    <circle net="2" cx="1143" cy="1685" r="6.4" r1="9" r2="3" stroke-width="5" stroke="#ff9900" fill="#ffffff" opacity="1" layer="MULTILAYER" />
    <circle net="2" cx="1108" cy="1685" r="6.4" r1="9" r2="3" stroke-width="5" stroke="#ff9900" fill="#ffffff" opacity="1" layer="MULTILAYER" />
    <circle net="2" cx="1129" cy="1638" r="6.4" r1="9" r2="3" stroke-width="5" stroke="#ff9900" fill="#ffffff" opacity="1" layer="MULTILAYER" />
    <circle net="10" cx="835" cy="1590" r="7" r1="10" r2="5" stroke-width="5" stroke="#ff9900" fill="#ffffff" opacity="1" layer="MULTILAYER" />
    <circle net="0" cx="1095" cy="1550" r="6.4" r1="9" r2="3" stroke-width="5" stroke="#ff9900" fill="#ffffff" opacity="1" layer="MULTILAYER" />
    <circle net="0" cx="1420" cy="1640" r="15" r1="20" r2="10" stroke-width="10" stroke="#ff9900" fill="#ffffff" opacity="1" layer="MULTILAYER" />
    <circle net="0" cx="1420" cy="1695" r="15" r1="20" r2="10" stroke-width="10" stroke="#ff9900" fill="#ffffff" opacity="1" layer="MULTILAYER" />
    <circle net="2" cx="1500" cy="1855" r="15" r1="20" r2="10" stroke-width="10" stroke="#ff9900" fill="#ffffff" opacity="1" layer="MULTILAYER" />
    <circle net="2" cx="1445" cy="1855" r="15" r1="20" r2="10" stroke-width="10" stroke="#ff9900" fill="#ffffff" opacity="1" layer="MULTILAYER" />
    <circle net="2" cx="1390" cy="1855" r="15" r1="20" r2="10" stroke-width="10" stroke="#ff9900" fill="#ffffff" opacity="1" layer="MULTILAYER" />
    <circle net="2" cx="1340" cy="1855" r="15" r1="20" r2="10" stroke-width="10" stroke="#ff9900" fill="#ffffff" opacity="1" layer="MULTILAYER" />
    <circle net="2" cx="1540" cy="1890" r="6.4" r1="9" r2="3" stroke-width="5" stroke="#ff9900" fill="#ffffff" opacity="1" layer="MULTILAYER" />
    <circle net="2" cx="1505" cy="1890" r="6.4" r1="9" r2="3" stroke-width="5" stroke="#ff9900" fill="#ffffff" opacity="1" layer="MULTILAYER" />
    <circle net="2" cx="1470" cy="1890" r="6.4" r1="9" r2="3" stroke-width="5" stroke="#ff9900" fill="#ffffff" opacity="1" layer="MULTILAYER" />
    <circle net="2" cx="1435" cy="1890" r="6.4" r1="9" r2="3" stroke-width="5" stroke="#ff9900" fill="#ffffff" opacity="1" layer="MULTILAYER" />
    <circle net="2" cx="1400" cy="1890" r="6.4" r1="9" r2="3" stroke-width="5" stroke="#ff9900" fill="#ffffff" opacity="1" layer="MULTILAYER" />
    <circle net="2" cx="1365" cy="1890" r="6.4" r1="9" r2="3" stroke-width="5" stroke="#ff9900" fill="#ffffff" opacity="1" layer="MULTILAYER" />
    <circle net="2" cx="1172" cy="1770" r="6.4" r1="9" r2="3" stroke-width="5" stroke="#ff9900" fill="#ffffff" opacity="1" layer="MULTILAYER" />
    <circle net="2" cx="1143" cy="1770" r="6.4" r1="9" r2="3" stroke-width="5" stroke="#ff9900" fill="#ffffff" opacity="1" layer="MULTILAYER" />
    <circle net="2" cx="1108" cy="1770" r="6.4" r1="9" r2="3" stroke-width="5" stroke="#ff9900" fill="#ffffff" opacity="1" layer="MULTILAYER" />
    <circle net="2" cx="1120" cy="1890" r="6.4" r1="9" r2="3" stroke-width="5" stroke="#ff9900" fill="#ffffff" opacity="1" layer="MULTILAYER" />
    <circle net="2" cx="1155" cy="1890" r="6.4" r1="9" r2="3" stroke-width="5" stroke="#ff9900" fill="#ffffff" opacity="1" layer="MULTILAYER" />
    <circle net="2" cx="1190" cy="1890" r="6.4" r1="9" r2="3" stroke-width="5" stroke="#ff9900" fill="#ffffff" opacity="1" layer="MULTILAYER" />
    <circle net="2" cx="1225" cy="1890" r="6.4" r1="9" r2="3" stroke-width="5" stroke="#ff9900" fill="#ffffff" opacity="1" layer="MULTILAYER" />
    <circle net="2" cx="1260" cy="1890" r="6.4" r1="9" r2="3" stroke-width="5" stroke="#ff9900" fill="#ffffff" opacity="1" layer="MULTILAYER" />
    <circle net="2" cx="1295" cy="1890" r="6.4" r1="9" r2="3" stroke-width="5" stroke="#ff9900" fill="#ffffff" opacity="1" layer="MULTILAYER" />
    <circle net="2" cx="1085" cy="1890" r="6.4" r1="9" r2="3" stroke-width="5" stroke="#ff9900" fill="#ffffff" opacity="1" layer="MULTILAYER" />
    <circle net="2" cx="1330" cy="1890" r="6.4" r1="9" r2="3" stroke-width="5" stroke="#ff9900" fill="#ffffff" opacity="1" layer="MULTILAYER" />
    <circle net="2" cx="1108" cy="1800" r="6.4" r1="9" r2="3" stroke-width="5" stroke="#ff9900" fill="#ffffff" opacity="1" layer="MULTILAYER" />
    <circle net="16" cx="1212" cy="1587" r="6.4" r1="9" r2="3" stroke-width="5" stroke="#ff9900" fill="#ffffff" opacity="1" layer="MULTILAYER" />
    <circle net="10" cx="1190" cy="1550" r="6.4" r1="9" r2="3" stroke-width="5" stroke="#ff9900" fill="#ffffff" opacity="1" layer="MULTILAYER" />
    <circle net="0" cx="900" cy="780" r="15" r1="20" r2="10" stroke-width="10" stroke="#ff9900" fill="#ffffff" opacity="1" layer="MULTILAYER" />
    <circle net="0" cx="1126" cy="1549" r="6.4" r1="9" r2="3" stroke-width="5" stroke="#ff9900" fill="#ffffff" opacity="1" layer="MULTILAYER" />
    <circle net="1" cx="1750" cy="2240" r="15" r1="20" r2="10" stroke-width="10" stroke="#ff9900" fill="#ffffff" opacity="1" layer="MULTILAYER" />
    <circle net="1" cx="1300" cy="1740" r="15" r1="20" r2="10" stroke-width="10" stroke="#ff9900" fill="#ffffff" opacity="1" layer="MULTILAYER" />
    <circle net="1" cx="1250" cy="2845" r="58.8" r1="68" r2="49" stroke-width="19" stroke="#ff9900" fill="#ffffff" opacity="1" layer="MULTILAYER" />
    <circle net="0" cx="575" cy="2845" r="58.8" r1="68" r2="49" stroke-width="19" stroke="#ff9900" fill="#ffffff" opacity="1" layer="MULTILAYER" />
    <circle net="10" cx="1280" cy="195" r="58.8" r1="68" r2="49" stroke-width="19" stroke="#ff9900" fill="#ffffff" opacity="1" layer="MULTILAYER" />
    <circle net="0" cx="1005" cy="195" r="58.8" r1="68" r2="49" stroke-width="19" stroke="#ff9900" fill="#ffffff" opacity="1" layer="MULTILAYER" />
  </g>
</svg>

